<?xml version="1.0" encoding="utf-8"?>
<!-- Generator: Adobe Illustrator 19.0.0, SVG Export Plug-In . SVG Version: 6.00 Build 0)  -->
<svg version="1.1" baseProfile="tiny" id="Layer_1" xmlns="http://www.w3.org/2000/svg" xmlns:xlink="http://www.w3.org/1999/xlink"
	 x="0px" y="0px" viewBox="0 0 94.6 21.4" xml:space="preserve">
<g id="XMLID_1_">
	<g id="XMLID_4_">
		<g id="XMLID_13_">
			<path id="XMLID_14_" fill="#1d42d9" d="M8.3,1.6c0,0.6-0.2,0.9-0.7,0.9c-0.2,0-0.4-0.1-0.8-0.4C6.6,1.8,6.2,1.7,5.8,1.7
				C5.4,1.7,5,1.8,4.6,2.2C4.3,2.5,4.2,2.9,4.2,3.3V5h1.7c0.6,0,0.8,0.3,0.8,0.8c0,0.6-0.3,0.8-0.8,0.8H4.2v9.2
				c0,0.6-0.3,0.8-0.8,0.8c-0.6,0-0.8-0.3-0.8-0.8V6.6H0.8C0.3,6.6,0,6.4,0,5.8C0,5.3,0.3,5,0.8,5h1.7V3.3c0-0.9,0.3-1.7,1-2.3
				c0.7-0.7,1.4-1,2.4-1C6.4,0,7,0.1,7.4,0.3C8,0.6,8.3,1.1,8.3,1.6z"/>
			<path id="XMLID_16_" fill="#1d42d9" d="M21.1,10.8c0,1.6-0.6,3-1.7,4.1c-1.1,1.1-2.5,1.7-4.1,1.7c-1.6,0-3-0.6-4.1-1.7
				c-1.1-1.1-1.7-2.5-1.7-4.1c0-1.6,0.6-3,1.7-4.1C12.3,5.6,13.6,5,15.2,5c1.6,0,3,0.6,4.1,1.7C20.5,7.8,21.1,9.2,21.1,10.8z
				 M19.4,10.8c0-1.1-0.4-2.1-1.2-2.9c-0.8-0.8-1.8-1.2-2.9-1.2c-1.1,0-2.1,0.4-2.9,1.2c-0.8,0.8-1.2,1.8-1.2,2.9
				c0,1.1,0.4,2.1,1.2,2.9c0.8,0.8,1.8,1.2,2.9,1.2c1.1,0,2.1-0.4,2.9-1.2C19,12.9,19.4,12,19.4,10.8z"/>
			<path id="XMLID_19_" fill="#1d42d9" d="M33.8,10.8c0,1.6-0.6,3-1.7,4.1c-1.1,1.1-2.5,1.7-4.1,1.7c-1.6,0-3-0.6-4.1-1.7
				c-1.1-1.1-1.7-2.5-1.7-4.1c0-1.6,0.6-3,1.7-4.1C25,5.6,26.4,5,28,5c1.6,0,3,0.6,4.1,1.7C33.2,7.8,33.8,9.2,33.8,10.8z M32.2,10.8
				c0-1.1-0.4-2.1-1.2-2.9c-0.8-0.8-1.8-1.2-2.9-1.2c-1.1,0-2.1,0.4-2.9,1.2c-0.8,0.8-1.2,1.8-1.2,2.9c0,1.1,0.4,2.1,1.2,2.9
				c0.8,0.8,1.8,1.2,2.9,1.2c1.1,0,2.1-0.4,2.9-1.2C31.7,12.9,32.2,12,32.2,10.8z"/>
			<path id="XMLID_22_" fill="#1d42d9" d="M43.2,15c0,0.6-0.3,1-0.9,1.3c-0.5,0.2-1,0.3-1.6,0.3c-0.9,0-1.7-0.3-2.4-1
				c-0.7-0.7-1-1.4-1-2.4V6.6h-1.7c-0.6,0-0.8-0.3-0.8-0.8c0-0.5,0.3-0.8,0.8-0.8h1.7V0.8c0-0.6,0.3-0.8,0.8-0.8
				c0.6,0,0.8,0.3,0.8,0.8V5h1.7c0.6,0,0.8,0.3,0.8,0.8c0,0.6-0.3,0.8-0.8,0.8h-1.7v6.7c0,0.5,0.2,0.9,0.5,1.2
				c0.3,0.3,0.7,0.5,1.2,0.5c0.4,0,0.7-0.1,1.1-0.4s0.6-0.4,0.8-0.4C43,14.2,43.2,14.4,43.2,15z"/>
			<path id="XMLID_24_" fill="#D91C5C" d="M56.4,11.1c0,1.5-0.5,2.8-1.6,3.9c-1.1,1.1-2.4,1.6-3.9,1.6c-1.6,0-2.9-0.6-4-1.7v5.6
				c0,0.5-0.3,0.8-0.8,0.8c-0.5,0-0.8-0.3-0.8-0.8V6.3c0-0.5,0.3-0.8,0.8-0.8c0.4,0,0.7,0.2,0.8,0.6c0,0.1,0.1,0.5,0,1.1
				c1.1-1.1,2.4-1.7,4-1.7c1.5,0,2.8,0.5,3.9,1.6C55.9,8.3,56.4,9.6,56.4,11.1z M54.9,11.1c0-1.1-0.4-2-1.2-2.8
				c-0.8-0.8-1.7-1.2-2.8-1.2s-2,0.4-2.8,1.2s-1.2,1.7-1.2,2.8c0,1.1,0.4,2,1.2,2.8c0.8,0.8,1.7,1.2,2.8,1.2s2-0.4,2.8-1.2
				C54.5,13.1,54.9,12.2,54.9,11.1z"/>
			<path id="XMLID_27_" fill="#D91C5C" d="M64.6,7.6c0,0.2-0.1,0.4-0.3,0.5c-0.2,0.2-0.4,0.2-0.6,0.2s-0.5-0.2-0.8-0.6
				c-0.3-0.4-0.7-0.6-1.2-0.6c-0.4,0-0.8,0.2-1.1,0.5c-0.3,0.3-0.5,0.7-0.5,1.1v7.1c0,0.5-0.3,0.8-0.8,0.8c-0.5,0-0.8-0.3-0.8-0.8
				V6.3c0-0.5,0.3-0.8,0.8-0.8c0.4,0,0.6,0.2,0.7,0.5c0.5-0.3,1-0.5,1.6-0.5c0.5,0,1.1,0.1,1.6,0.4c0.5,0.3,0.9,0.7,1.1,1.1
				C64.5,7.3,64.6,7.4,64.6,7.6z"/>
			<path id="XMLID_29_" fill="#D91C5C" d="M74.1,17.4c0,1.1-0.4,2-1.2,2.8c-0.8,0.8-1.7,1.2-2.8,1.2c-0.7,0-1.3-0.2-2-0.5
				c-0.7-0.4-1.1-0.8-1.4-1.4c-0.1-0.2-0.1-0.3-0.1-0.4c0-0.2,0.1-0.4,0.3-0.6c0.2-0.2,0.4-0.2,0.6-0.2c0.2,0,0.5,0.3,1,0.8
				c0.5,0.5,1.1,0.8,1.7,0.8c0.7,0,1.2-0.2,1.7-0.7c0.5-0.5,0.7-1,0.7-1.7v-1.6c-0.7,0.5-1.5,0.8-2.4,0.8c-1.1,0-2-0.4-2.8-1.2
				s-1.2-1.7-1.2-2.8V6.3c0-0.5,0.3-0.8,0.8-0.8c0.5,0,0.8,0.3,0.8,0.8v6.3c0,0.7,0.2,1.2,0.7,1.7c0.5,0.5,1,0.7,1.7,0.7
				c0.7,0,1.2-0.2,1.7-0.7c0.5-0.5,0.7-1,0.7-1.7V6.3c0-0.5,0.3-0.8,0.8-0.8c0.5,0,0.8,0.3,0.8,0.8V17.4z"/>
			<path id="XMLID_31_" fill="#D91C5C" d="M85.1,15.8c0,0.5-0.3,0.8-0.8,0.8c-0.5,0-0.8-0.3-0.8-0.8V9.5c0-0.7-0.2-1.2-0.7-1.7
				c-0.5-0.5-1-0.7-1.7-0.7c-0.7,0-1.2,0.2-1.7,0.7c-0.5,0.5-0.7,1-0.7,1.7v6.3c0,0.5-0.3,0.8-0.8,0.8c-0.5,0-0.8-0.3-0.8-0.8V6.3
				c0-0.5,0.3-0.8,0.8-0.8c0.5,0,0.8,0.3,0.8,0.8c0.7-0.5,1.5-0.8,2.4-0.8c1.1,0,2,0.4,2.8,1.2c0.8,0.8,1.2,1.7,1.2,2.8V15.8z"/>
			<path id="XMLID_33_" fill="#D91C5C" d="M94.6,15.1c0,0.5-0.3,0.9-0.8,1.2c-0.4,0.2-1,0.3-1.5,0.3c-0.9,0-1.6-0.3-2.2-0.9
				s-0.9-1.4-0.9-2.2V7.1h-1.6c-0.5,0-0.8-0.3-0.8-0.8c0-0.5,0.3-0.8,0.8-0.8h1.6v-4c0-0.5,0.3-0.8,0.8-0.8s0.8,0.3,0.8,0.8v4h1.6
				c0.5,0,0.8,0.3,0.8,0.8c0,0.5-0.3,0.8-0.8,0.8h-1.6v6.3c0,0.4,0.2,0.8,0.5,1.1s0.7,0.5,1.1,0.5c0.4,0,0.7-0.1,1-0.4
				c0.3-0.3,0.6-0.4,0.7-0.4C94.4,14.3,94.6,14.5,94.6,15.1z"/>
		</g>
	</g>
</g>
</svg>
